<svg width="460" height="420" viewBox="0 0 460 420" fill="none" xmlns="http://www.w3.org/2000/svg" role="img" aria-label="Letter blocks">
  <defs>
    <linearGradient id="sh" x1="0" y1="0" x2="1" y2="1">
      <stop stop-color="#FFFFFF" stop-opacity="0.22"></stop><stop offset="1" stop-color="#FFFFFF" stop-opacity="0"></stop>
    </linearGradient>
  </defs>
  
  <ellipse cx="230" cy="220" rx="210" ry="190" fill="#E8ECE0"></ellipse>
  
  <g transform="rotate(-8 150 150)">
    <rect x="70" y="86" width="150" height="150" rx="34" fill="#8B9A7D"></rect>
    <rect x="70" y="86" width="150" height="150" rx="34" fill="url(#sh)"></rect>
    <rect x="84" y="100" width="122" height="122" rx="24" fill="none" stroke="#F4F6F0" stroke-opacity="0.5" stroke-width="3"></rect>
    <text x="145" y="170" text-anchor="middle" font-family="Nunito, sans-serif" font-weight="800" font-size="92" fill="#FAF6F1">b</text>
  </g>
  
  <g transform="rotate(7 320 130)">
    <rect x="250" y="60" width="132" height="132" rx="30" fill="#C77F5E"></rect>
    <rect x="250" y="60" width="132" height="132" rx="30" fill="url(#sh)"></rect>
    <rect x="262" y="72" width="108" height="108" rx="21" fill="none" stroke="#FBF1EB" stroke-opacity="0.55" stroke-width="2.8"></rect>
    <text x="316" y="138" text-anchor="middle" font-family="Nunito, sans-serif" font-weight="800" font-size="80" fill="#FBF1EB">c</text>
    <circle cx="360" cy="84" r="6" fill="#FBF1EB" fill-opacity="0.9"></circle>
  </g>
  
  <g transform="rotate(-4 300 300)">
    <rect x="238" y="232" width="150" height="150" rx="34" fill="#B26645"></rect>
    <rect x="238" y="232" width="150" height="150" rx="34" fill="url(#sh)"></rect>
    <rect x="252" y="246" width="122" height="122" rx="24" fill="none" stroke="#FBF1EB" stroke-opacity="0.5" stroke-width="3"></rect>
    <text x="313" y="318" text-anchor="middle" font-family="Nunito, sans-serif" font-weight="800" font-size="92" fill="#FBF1EB">a</text>
  </g>
  
  <circle cx="110" cy="300" r="9" fill="#C2C9B3"></circle>
  <circle cx="400" cy="250" r="7" fill="#E3B7A0"></circle>
  <circle cx="180" cy="60" r="6" fill="#D4946F"></circle>
</svg>